<?xml version="1.0" encoding="UTF-8"?>
<svg id="Layer_1" xmlns="http://www.w3.org/2000/svg" version="1.1" viewBox="0 0 32 32">
  <!-- Generator: Adobe Illustrator 30.1.0, SVG Export Plug-In . SVG Version: 2.1.1 Build 136)  -->
  <defs>
    <style>
      .st0 {
        fill: #fff;
      }

      .st0, .st1 {
        fill-rule: evenodd;
      }
    </style>
  </defs>
  <g>
    <path class="st1" d="M1.81,18.77s-.01-.04,0-.06c.18-.57,1.04-3.36,1.32-4.76.23-1.12.34-2.44.46-3.7h-.75c-.06,0-.11-.03-.14-.08-.03-.05-.04-.1-.02-.16.08-.23.2-.58.29-.83.15-.43.25-.67.33-.89.03-.09.13-.16.24-.16h2.01s3.25-.06,4.15.19c.68.19,1.45.57,1.93,1.58.23.49.23,1.04.08,1.57l.13.06c.42-.16,1.1-.04,1.35.01.02,0,.04.02.05.04,0,0,0,.02,0,.03h.03s1.63,1.14,1.63,1.14c0,0-.95,2.13-1.11,3.62.98-1.11,2.11-4.72,2.69-5.18.28-.23,1-.32,1.41-.02,0,0,1.7.73,1.5,1.91,0,.04-.01.08-.02.13.02-.05.05-.11.07-.16.53-1.17,1.04-1.44,1.45-1.68.5-.28,1.19-.46,1.8-.36.83.14,1.8.92,1.8.92,0,0,.3-.3.64-.56.61-.46,2.26-.76,3.17.33.01,0,.19-.11.19-.11,0,0,1.21,1.74,1.7,2.44.03.06.03.13,0,.18-.03.06-.08.1-.14.12-.44.1-.87.18-1.21.23-.09.02-.19-.04-.22-.12-.05-.12-.11-.23-.17-.29-.19-.18-.53-.22-.77-.16-.23.06-.52.32-.64.52-.08.15-.14.33-.18.51.37-.05.74-.1,1.03-.14.15-.02.3.02.42.12.11.1.18.24.18.4v.25c.23-.1.38-.18.38-.18,0,0,.56.52.67.62.11.1.18.24.18.4v.94c0,.26-.19.48-.45.52l-2.67.41c-.32,2.21-.54,4.54-.73,5.03-.32.84-2.58.21-2.58.21l-1.35-.98s.06-.09.15-.23c-.02-.02-.04-.05-.06-.08-.19-.27.02-1.68.29-3.29-.15.03-.31.07-.47.11-.41,1.91-.78,3.89-.91,4.27-.28.81-2.89.21-2.89.21l-1.11-1.17s-.09-.07-.11-.11c0,0,0,0,0-.01-.14-.27.22-1.38.54-2.46-.2-.04-.41-.12-.63-.25-.27-.17-.49-.54-.63-.84-.12-.02-.24-.06-.36-.12-.56.66-2.07,2.07-3.63,1.06-.05-.03-.1-.07-.14-.1-.51.06-1.09.13-1.48.13-.59,0-2.8-.09-3.4-1.46-.11-.04-.22-.1-.32-.15-.48,1-.81,1.7-.81,1.7,0,.04-.04.07-.08.07h-2.76s-1.31-1.12-1.31-1.12c0,0,0,0,0-.01ZM14.84,17.63c-.07-.16-.11-.29-.12-.34-.04.07-.19.26-.41.49.06.01.12.02.19.02.11,0,.22-.06.35-.18ZM23.1,14.39c-.04.06-.08.13-.11.19-.13.27-.23.56-.35.99.09-.01.18-.02.27-.03.06-.32.14-.75.19-1.15ZM10.07,15.98c-.25.25-.45.5-.59.72.17,0,.35,0,.55,0,0-.23.01-.47.04-.72Z"/>
    <path class="st1" d="M1.48,19.17l-.11-.15c-.08-.14-.09-.3-.05-.45.18-.57,1.03-3.32,1.31-4.71.19-.95.3-2.03.4-3.1h-.2c-.22,0-.42-.11-.55-.29-.13-.18-.16-.41-.09-.61.08-.23.2-.59.29-.83.15-.43.25-.67.33-.89.1-.28.38-.49.71-.49h2c.15,0,3.37-.04,4.29.21.8.22,1.69.67,2.25,1.85.19.4.25.83.22,1.27.4,0,.79.06.98.1h0c.1.02.2.08.28.15l1.62,1.14s.04.03.06.05c.04-.1.09-.2.13-.29.3-.65.59-1.13.79-1.3.2-.16.56-.3.94-.32.36-.02.74.06,1.03.25.17.08.74.37,1.17.82.09.09.17.19.25.29.4-.53.77-.73,1.09-.91.59-.34,1.41-.54,2.13-.42.6.1,1.27.5,1.67.77.11-.1.24-.21.39-.32.37-.28,1.05-.52,1.78-.51.74,0,1.52.26,2.08.93l-.14.31-.24.02c-.92-1.04-2.58-.8-3.18-.34-.35.26-.64.56-.64.56,0,0-.96-.78-1.8-.92-.6-.1-1.3.07-1.8.36-.41.23-.92.51-1.45,1.68-.02.05-.05.1-.07.16l.02-.13c.2-1.17-1.5-1.91-1.5-1.91-.4-.3-1.12-.2-1.41.02-.58.47-1.7,4.08-2.69,5.18.15-1.49,1.11-3.62,1.11-3.62l-1.63-1.15h-.03s0-.01,0-.02c-.01-.02-.03-.04-.05-.04-.24-.05-.92-.17-1.35-.01l-.13-.06c.15-.53.16-1.07-.08-1.57-.48-1.01-1.25-1.4-1.93-1.58-.91-.25-4.15-.19-4.15-.19h-2.01c-.11,0-.21.06-.24.16-.08.22-.17.46-.33.89-.09.24-.21.6-.29.83-.02.05-.01.11.02.16.03.05.08.07.14.07h.75c-.12,1.27-.23,2.58-.46,3.7-.28,1.4-1.15,4.18-1.32,4.76,0,.02,0,.04,0,.06h0s1.31,1.13,1.31,1.13h2.76s.07-.03.08-.07c0,0,.33-.7.81-1.7.1.06.21.11.32.15.6,1.38,2.81,1.46,3.4,1.46.39,0,.97-.07,1.48-.13.05.04.09.07.14.1,1.56,1.01,3.07-.41,3.63-1.06.12.06.25.09.36.12.14.3.36.67.63.84.22.14.43.22.63.25-.32,1.08-.68,2.19-.54,2.46,0,0,0,0,0,.01.02.04.06.08.11.11l1.11,1.17s2.62.61,2.89-.21c.13-.38.5-2.36.91-4.27.16-.04.31-.07.47-.11-.27,1.6-.48,3.02-.29,3.29.02.03.04.05.06.08-.09.15-.15.23-.15.23l1.35.98s2.26.63,2.58-.21c.19-.49.41-2.82.73-5.03l2.67-.41c.26-.04.45-.26.45-.52v-.94c0-.15-.07-.3-.18-.4-.11-.1-.67-.62-.67-.62,0,0-.15.07-.38.18v-.25c0-.15-.07-.3-.18-.4-.11-.1-.27-.15-.42-.12-.29.04-.66.09-1.03.14.04-.18.1-.36.18-.51.11-.21.4-.46.64-.52.23-.06.58-.02.77.16.06.06.12.16.17.29.04.09.13.14.22.12.34-.05.76-.13,1.21-.23.06-.01.12-.06.14-.12.03-.06.02-.13,0-.18-.39-.55-1.35-1.71-1.72-2.15l.22-.5s1.42,1.66,1.91,2.36c.01.02.02.03.03.05.11.19.11.43.02.63-.09.2-.27.35-.49.4h0c-.38.09-.74.16-1.06.21.04.02.08.05.11.08,0,0,.55.51.66.61.22.2.35.48.35.78v.94c0,.51-.37.94-.87,1.02l-2.31.35c-.3,2.15-.53,4.3-.71,4.77-.16.41-.56.66-1.1.73-.86.11-2.08-.22-2.08-.22-.06-.02-.11-.04-.16-.08l-1.35-.98s-.06-.05-.08-.07c-.06.29-.12.5-.15.61-.13.4-.56.67-1.16.74-.93.11-2.32-.21-2.32-.21-.1-.02-.18-.07-.25-.14l-1.09-1.14c-.09-.08-.16-.16-.2-.23,0-.01-.01-.02-.02-.03-.07-.14-.11-.4-.05-.76.06-.4.24-.99.42-1.61-.09-.04-.18-.09-.28-.15-.25-.16-.48-.44-.65-.73-.33.33-.78.7-1.3.95-.79.38-1.73.49-2.68-.12h0c-.48.05-.98.11-1.34.11-.39,0-1.4-.04-2.3-.39-.49-.19-.95-.48-1.27-.89-.26.54-.44.92-.49,1.04-.08.23-.3.39-.55.39h-2.76s-.17.01-.36-.15c-.22-.18-1.28-1.09-1.28-1.09M14.84,17.63c-.13.11-.24.18-.35.18-.07,0-.13,0-.19-.02.22-.23.37-.42.41-.49,0,.04.05.17.12.34ZM23.1,14.39c-.05.4-.13.83-.19,1.15-.09.01-.18.02-.27.03.12-.43.22-.72.35-.99.03-.07.07-.13.11-.19ZM10.07,15.98c-.03.24-.04.48-.04.72-.2,0-.38,0-.55,0,.13-.22.34-.47.59-.72Z"/>
  </g>
  <path class="st0" d="M27.6,13.5c-.09.02-.19-.04-.22-.12-.05-.12-.11-.23-.17-.29-.19-.18-.53-.22-.77-.16-.23.06-.52.32-.64.52-.28.51-.26,1.25-.3,1.77.62-.07,1.71-.22,2.39-.32.15-.02.3.02.42.12.11.1.18.24.18.4v.94c0,.26-.19.48-.45.52l-2.67.41c-.32,2.21-.54,4.54-.73,5.03-.32.84-2.17.62-2.61,0-.24-.34.16-2.55.52-4.63-.66.09-1.28.21-1.93.36-.41,1.91-.78,3.89-.91,4.27-.28.81-2.64.48-2.89,0-.21-.41.73-2.76.93-4-.06.05-.13.09-.19.12-.52.27-1.22.6-2.06.08-.45-.28-.75-1.11-.78-1.23-.18.27-1.97,2.55-3.84,1.34-.05-.03-.1-.07-.14-.1-.51.06-1.09.13-1.48.13-.73,0-3.91-.13-3.52-2.64.13-.87.38-1.24.62-1.61.86-1.34,1.5-1.43,2.58-2.46.78-.74.41-1.19-.04-1.46-.22-.13-.87-.2-1.32-.24-.48-.04-1.59,0-1.59,0l-1.26,8.49s-.04.07-.08.07H1.88s-.05-.01-.06-.03c-.02-.02-.02-.05-.01-.07.18-.57,1.04-3.36,1.32-4.76.23-1.12.34-2.44.46-3.7h-.75c-.06,0-.11-.03-.14-.08-.03-.05-.04-.1-.02-.16.08-.23.2-.58.29-.83.15-.43.25-.67.33-.89.03-.09.13-.16.24-.16h2.01s3.25-.06,4.15.19c.68.19,1.45.57,1.93,1.58.26.54.22,1.15.03,1.73.37-.3,1.24-.15,1.52-.08.02,0,.04.02.05.04.01.02.01.04,0,.07-.25.67-1.82,5.05.03,5.05,1.08,0,2.53-4.96,3.21-5.51.43-.34,1.87-.38,1.68.79-.67,4.01-.59,4.21-.11,4.23.16,0,.32-.16.37-.32.33-1.07.71-2.17,1.02-2.85.53-1.17,1.04-1.44,1.45-1.68.5-.28,1.19-.46,1.8-.36.83.14,1.8.92,1.8.92,0,0,.3-.3.64-.56.66-.49,2.53-.8,3.37.62.1.16.3.58.49.96.03.06.03.12,0,.18-.03.06-.08.1-.14.11-.45.1-.89.18-1.24.24ZM21.07,15.78c.6-.08,1.22-.16,1.84-.24.11-.6.3-1.6.22-2.04-.05-.3-.4-.7-.69-.62-.31.09-.56.34-.69.62-.23.48-.37,1.03-.68,2.28ZM10.03,16.69c-.01-1.28.49-2.81.91-3.81-.1.12-.2.22-.3.33-1.06,1.04-2.65,2.22-2.55,2.96.03.23.43.44,1.2.52.22.02.47.02.74,0Z"/>
</svg>