<?xml version="1.0" encoding="UTF-8"?>
<svg id="Layer_1" xmlns="http://www.w3.org/2000/svg" version="1.1" viewBox="0 0 512 512">
  <!-- Generator: Adobe Illustrator 30.1.0, SVG Export Plug-In . SVG Version: 2.1.1 Build 136)  -->
  <defs>
    <style>
      .st0 {
        fill: #fff;
      }

      .st0, .st1 {
        fill-rule: evenodd;
      }
    </style>
  </defs>
  <g>
    <path class="st1" d="M104.56,285.55c-.11-.2-.14-.44-.07-.67,1.9-6.1,11.09-35.78,14.11-50.65,2.43-11.97,3.59-25.96,4.89-39.39l-7.99-.05c-.59,0-1.15-.29-1.49-.78-.34-.49-.43-1.11-.24-1.67.85-2.44,2.16-6.2,3.1-8.8,1.64-4.54,2.62-7.14,3.47-9.45.37-1,1.41-1.68,2.59-1.68h21.36s34.58-.61,44.24,2.02c7.26,1.98,15.46,6.09,20.53,16.85,2.47,5.25,2.42,11.08.8,16.7l1.37.62c4.5-1.71,11.75-.41,14.34.15.24.05.45.21.57.43.05.1.09.21.1.33l.28-.08,17.38,12.25s-10.15,22.72-11.79,38.57c10.49-11.8,22.46-50.26,28.65-55.22,3.01-2.41,10.67-3.41,14.98-.26,0,0,18.09,7.78,15.99,20.29-.08.45-.15.9-.22,1.34.25-.58.5-1.14.74-1.67,5.67-12.42,11.12-15.36,15.48-17.84,5.31-3.02,12.7-4.91,19.13-3.82,8.87,1.5,19.12,9.82,19.12,9.82,0,0,3.15-3.24,6.85-6,6.52-4.88,24.06-8.08,33.76,3.54.12-.03.19-.04.19-.04,0,0,14.75,17.45,19.92,24.85.33.61.36,1.33.07,1.97-.28.63-.85,1.09-1.52,1.25-4.72,1.08-9.27,1.91-12.85,2.49-1,.16-1.98-.38-2.39-1.3-.57-1.31-1.19-2.46-1.82-3.05-2.02-1.91-5.68-2.35-8.18-1.7-2.49.65-5.58,3.38-6.78,5.59-.88,1.62-1.48,3.47-1.9,5.42,3.99-.55,7.91-1.1,11.02-1.54,1.61-.23,3.23.26,4.46,1.32,1.22,1.06,1.93,2.61,1.93,4.23v2.65c2.42-1.11,4.03-1.9,4.03-1.9,0,0,5.94,5.54,7.17,6.6,1.22,1.06,1.93,2.61,1.93,4.23v10.02c0,2.77-2.02,5.12-4.76,5.54l-28.49,4.33c-3.43,23.58-5.8,48.39-7.81,53.63-3.41,8.9-27.45,2.2-27.45,2.2l-14.39-10.49s.6-.91,1.6-2.49c-.25-.26-.47-.53-.67-.81-2.01-2.84.16-17.92,3.05-35.02-1.65.35-3.3.72-4.97,1.12-4.32,20.33-8.28,41.39-9.67,45.48-2.94,8.65-30.82,2.2-30.82,2.2l-11.84-12.46c-.52-.39-.91-.8-1.15-1.21-.02-.04-.04-.07-.06-.11-1.49-2.91,2.37-14.69,5.77-26.18-2.14-.39-4.39-1.23-6.76-2.7-2.9-1.8-5.24-5.8-6.69-8.94-1.25-.25-2.53-.66-3.86-1.26-5.95,6.98-22.03,22.09-38.63,11.32-.54-.35-1.04-.72-1.53-1.11-5.47.62-11.59,1.38-15.78,1.38-6.33,0-29.83-.91-36.24-15.57-1.17-.48-2.31-1.01-3.41-1.61-5.08,10.61-8.61,18.11-8.61,18.11-.06.42-.42.73-.85.73h-29.41c-.06,0-13.98-11.9-13.98-11.9,0,0,.04-.04.11-.12ZM243.34,273.41c-.76-1.74-1.22-3.12-1.32-3.58-.47.73-2.01,2.78-4.37,5.25.61.14,1.27.21,1.99.21,1.12,0,2.36-.67,3.7-1.88ZM331.29,238.83c-.47.66-.87,1.36-1.21,2.07-1.37,2.89-2.43,6.01-3.69,10.54.97-.12,1.95-.25,2.92-.37.59-3.39,1.44-7.98,1.98-12.24ZM192.58,255.74c-2.63,2.7-4.84,5.28-6.27,7.67,1.79.06,3.73.02,5.84-.04-.02-2.47.13-5.03.43-7.63Z"/>
    <path class="st1" d="M102.19,290.77s-.56-.46-.57-.49l-1.74-2.15s.61-5.74.61-5.7l-.61,5.7c-.81-1.47-1-3.22-.49-4.85,1.88-6.03,10.98-35.4,13.97-50.12,2.05-10.07,3.17-21.59,4.25-32.98,0-.02-.02-.04-.04-.04h-1.94c-1.38-.02-2.76-.35-3.92-1.09-2.96-1.89-4.05-5.41-2.99-8.47.85-2.46,2.17-6.25,3.12-8.87,1.65-4.55,2.62-7.16,3.48-9.47,1.1-2.99,4.09-5.18,7.6-5.18h21.32c1.62-.02,35.93-.45,45.68,2.21,8.48,2.31,18.03,7.15,23.95,19.73,2.01,4.27,2.71,8.85,2.38,13.45,0,.02.02.04.04.04,4.2-.07,8.41.61,10.39,1.03h.05c1.12.26,2.13.82,2.94,1.59l17.29,12.19c.21.15.41.31.59.49.47-1.07.94-2.11,1.4-3.11,3.18-6.94,6.26-12.07,8.45-13.82,2.17-1.74,5.96-3.16,10.05-3.38,3.85-.21,7.88.62,10.93,2.63,1.82.86,7.86,3.91,12.47,8.7.93.97,1.8,2.01,2.58,3.1.01.02.04.02.06,0,4.23-5.61,8.21-7.75,11.59-9.67,6.29-3.58,15.05-5.73,22.66-4.44,6.41,1.09,13.5,5.29,17.75,8.16.01,0,.03,0,.04,0,1.18-1.05,2.59-2.24,4.08-3.35,3.94-2.95,11.17-5.53,18.92-5.48,7.86.05,16.34,2.67,22.29,9.79,0,.01.01.03,0,.04l-.75,1.62-1.74,3.79s-.04.03-.06,0c-9.79-11.02-29.04-10.3-35.46-5.49-3.51,2.63-6.53,5.68-6.82,5.98-.01.01-.03.02-.05,0-.55-.44-10.48-8.34-19.1-9.8-6.43-1.09-13.82.8-19.13,3.82-4.36,2.48-9.81,5.43-15.48,17.84-.24.53-.49,1.09-.74,1.67l.22-1.34c2.1-12.51-15.99-20.29-15.99-20.29-4.31-3.14-11.97-2.15-14.98.26-6.16,4.94-18.1,43.22-28.57,55.13-.02.03-.07,0-.07-.03,1.65-15.53,11.38-37.55,11.77-38.42,0-.02,0-.03-.01-.04l-17.36-12.23-.28.08c-.01-.11-.04-.22-.1-.33-.12-.22-.32-.38-.57-.43-2.59-.56-9.83-1.86-14.33-.16,0,0-.02,0-.03,0l-1.32-.61s-.03-.03-.02-.04c1.61-5.61,1.65-11.42-.81-16.67-5.07-10.77-13.27-14.87-20.53-16.85-9.65-2.63-44.24-2.02-44.24-2.02h-21.36c-1.18,0-2.22.68-2.59,1.68-.85,2.3-1.82,4.91-3.47,9.45-.94,2.6-2.25,6.36-3.1,8.8-.2.56-.11,1.18.24,1.67.34.49.9.78,1.49.78l7.95.05s.04.02.04.04c-1.3,13.42-2.46,27.39-4.89,39.35-3.02,14.87-12.21,44.55-14.11,50.65-.07.22-.04.47.07.67l-.11.12s13.92,11.9,13.98,11.9h29.41c.42,0,.78-.31.85-.73,0,0,3.53-7.48,8.59-18.07,0-.02.03-.03.05-.02,1.09.59,2.21,1.12,3.37,1.59,0,0,.02.01.02.02,6.41,14.65,29.91,15.56,36.23,15.56,4.18,0,10.29-.75,15.76-1.38,0,0,.02,0,.03,0,.48.39.98.76,1.51,1.1,16.58,10.76,32.65-4.31,38.61-11.3.01-.01.03-.02.04,0,1.31.59,2.58.99,3.82,1.24.01,0,.02,0,.02.02,1.45,3.14,3.79,7.13,6.68,8.93,2.35,1.46,4.59,2.3,6.72,2.69.02,0,.03.03.03.05-3.4,11.48-7.24,23.24-5.76,26.14.02.04.04.07.06.11.24.42.63.82,1.15,1.21l11.84,12.45s0,0,.01,0c.35.08,27.9,6.39,30.81-2.2,1.39-4.08,5.34-25.13,9.66-45.45,0-.01.01-.03.03-.03,1.65-.39,3.28-.76,4.9-1.1.03,0,.05.02.04.04-2.88,17.07-5.06,32.13-3.04,34.96.2.28.42.55.67.81-.89,1.41-1.47,2.29-1.58,2.46-.01.02,0,.04,0,.05l14.35,10.46s0,0,0,0c.21.06,24.05,6.66,27.45-2.2,2.01-5.24,4.37-30.03,7.8-53.6,0-.02.02-.03.03-.03l28.43-4.33c2.76-.42,4.79-2.79,4.79-5.58v-9.98c0-1.62-.7-3.16-1.93-4.23-1.19-1.03-6.81-6.27-7.15-6.58-.01-.01-.02-.01-.03,0-.17.08-1.71.84-3.96,1.87-.02.01-.05,0-.05-.03v-2.54c0-.67-.08-1.34-.32-1.96-1-2.63-3.56-4-6.07-3.65-3.09.44-6.99.99-10.96,1.53-.03,0-.05-.02-.04-.05.42-1.93,1.01-3.76,1.89-5.36,1.2-2.21,4.29-4.94,6.78-5.59,2.49-.65,6.15-.21,8.18,1.7.62.58,1.24,1.71,1.8,3.01.41.95,1.41,1.51,2.43,1.35,3.58-.58,8.12-1.41,12.83-2.49.67-.16,1.24-.62,1.52-1.25.28-.63.26-1.36-.07-1.97-4.13-5.9-14.34-18.19-18.31-22.93,0-.01-.01-.03,0-.04l2.45-5.27s.04-.03.06-.01c.79.93,15.07,17.89,20.18,25.19.11.16.22.33.32.51,1.71,3.13,1.05,7.2-2.07,9.66-.84.66-1.84,1.09-2.88,1.32h0c-4.03.92-7.93,1.66-11.24,2.23.43.22.84.51,1.21.85,0,0,5.83,5.43,7.03,6.48,2.39,2.08,3.77,5.09,3.77,8.26v9.98c0,5.43-3.96,10.04-9.33,10.86l-24.51,3.73s-.03.02-.03.03c-3.22,22.85-5.6,45.76-7.54,50.82-1.67,4.35-5.97,7.03-11.72,7.79-9.11,1.2-22.15-2.35-22.15-2.35-.62-.17-1.2-.45-1.71-.83l-14.39-10.49c-.32-.23-.6-.49-.85-.77-.69,3.12-1.24,5.37-1.6,6.46-1.43,4.22-5.98,7.13-12.39,7.88-9.94,1.16-24.69-2.19-24.69-2.19-1.02-.24-1.95-.77-2.67-1.52l-11.58-12.19c-.97-.8-1.69-1.66-2.17-2.5-.07-.11-.13-.23-.19-.35-.76-1.48-1.18-4.29-.57-8.05.69-4.27,2.52-10.52,4.48-17.08,0-.02,0-.04-.02-.04-.97-.45-1.95-.98-2.94-1.6-2.66-1.65-5.05-4.68-6.87-7.74-.01-.02-.04-.02-.06,0-3.46,3.46-8.24,7.45-13.8,10.13-8.38,4.05-18.38,5.27-28.54-1.33l-.08-.05c-5.11.58-10.49,1.18-14.31,1.18-4.12,0-14.96-.4-24.48-4.12-5.24-2.05-10.05-5.1-13.48-9.41-.02-.02-.05-.02-.06,0-2.73,5.72-4.64,9.77-5.22,10.99-.84,2.46-3.18,4.18-5.86,4.18h-29.41s-1.82.11-3.84-1.58M243.33,273.39s0,.03,0,.04c-1.33,1.2-2.56,1.86-3.68,1.86-.72,0-1.38-.07-1.99-.21,2.29-2.4,3.81-4.4,4.32-5.18.02-.03.05-.02.06,0,.12.52.57,1.84,1.29,3.47ZM331.29,238.83c-.54,4.25-1.39,8.83-1.98,12.22,0,.02-.02.03-.03.03-.94.12-1.89.24-2.84.36-.03,0-.05-.02-.04-.05,1.26-4.51,2.32-7.61,3.68-10.49.34-.71.74-1.41,1.21-2.07ZM192.57,255.85c-.29,2.55-.44,5.06-.42,7.48,0,.02-.02.04-.04.04-2.07.06-3.98.1-5.74.04-.03,0-.05-.03-.03-.06,1.42-2.35,3.59-4.89,6.16-7.54.02-.03.07,0,.06.03Z"/>
  </g>
  <path class="st0" d="M379.25,229.38c-1,.16-1.98-.38-2.39-1.3-.57-1.31-1.19-2.46-1.82-3.05-2.02-1.91-5.68-2.35-8.18-1.7-2.49.65-5.58,3.38-6.78,5.59-2.93,5.39-2.72,13.34-3.24,18.86,6.63-.75,18.26-2.38,25.49-3.4,1.61-.23,3.23.26,4.46,1.32,1.22,1.06,1.93,2.61,1.93,4.23v10.02c0,2.77-2.02,5.12-4.76,5.54l-28.49,4.33c-3.43,23.58-5.8,48.39-7.81,53.63-3.41,8.9-23.09,6.62-27.79,0-2.56-3.62,1.67-27.11,5.52-49.31-7.08.97-13.66,2.2-20.56,3.84-4.32,20.33-8.28,41.39-9.67,45.48-2.94,8.65-28.15,5.08-30.75,0-2.26-4.42,7.82-29.35,9.89-42.57-.67.5-1.35.94-2.01,1.28-5.59,2.91-12.97,6.43-21.99.83-4.76-2.95-8.02-11.83-8.28-13.13-1.88,2.91-21.02,27.15-40.9,14.24-.54-.35-1.04-.72-1.53-1.11-5.47.62-11.59,1.38-15.78,1.38-7.79,0-41.66-1.38-37.5-28.15,1.43-9.22,4.06-13.21,6.58-17.11,9.21-14.25,16.01-15.27,27.44-26.17,8.27-7.88,4.41-12.66-.4-15.51-2.3-1.36-9.3-2.17-14.07-2.56-5.16-.43-16.9,0-16.9,0l-13.41,90.42c-.06.42-.42.73-.85.73h-29.41c-.27,0-.53-.13-.69-.35-.16-.22-.21-.5-.13-.76,1.9-6.1,11.09-35.78,14.11-50.65,2.43-11.97,3.59-25.96,4.89-39.39l-7.99-.05c-.59,0-1.15-.29-1.49-.78-.34-.49-.43-1.11-.24-1.67.85-2.44,2.16-6.2,3.1-8.8,1.64-4.54,2.62-7.14,3.47-9.45.37-1,1.41-1.68,2.59-1.68h21.36s34.58-.61,44.24,2.02c7.25,1.98,15.46,6.09,20.53,16.85,2.72,5.78,2.39,12.25.27,18.38,3.98-3.2,13.23-1.55,16.24-.9.24.05.45.21.57.43.12.22.13.48.05.71-2.68,7.16-19.34,53.79.35,53.79,11.48,0,26.91-52.78,34.22-58.65,4.58-3.67,19.94-4.06,17.85,8.45-7.17,42.74-6.3,44.89-1.17,45.02,1.76.05,3.45-1.73,3.98-3.45,3.55-11.35,7.52-23.07,10.83-30.33,5.67-12.42,11.12-15.36,15.48-17.84,5.31-3.02,12.7-4.91,19.13-3.82,8.87,1.5,19.12,9.82,19.12,9.82,0,0,3.15-3.24,6.85-6,7.04-5.27,26.92-8.57,35.91,6.6,1.02,1.72,3.24,6.17,5.2,10.18.3.61.3,1.32.01,1.93-.29.61-.84,1.06-1.5,1.21-4.84,1.11-9.51,1.96-13.17,2.56ZM309.71,253.65c6.4-.87,13.03-1.74,19.6-2.57,1.12-6.39,3.14-17.03,2.31-21.76-.57-3.23-4.23-7.45-7.33-6.58-3.35.94-5.93,3.61-7.33,6.58-2.43,5.15-3.91,11-7.25,24.32ZM192.15,263.37c-.13-13.61,5.24-29.97,9.69-40.62-1.02,1.23-2.08,2.39-3.18,3.47-11.29,11.08-28.24,23.62-27.2,31.51.32,2.4,4.59,4.71,12.75,5.55,2.33.24,4.97.18,7.93.1Z"/>
</svg>